<svg xmlns="http://www.w3.org/2000/svg" xmlns:xlink="http://www.w3.org/1999/xlink" width="60" zoomAndPan="magnify" viewBox="0 0 45 30.000001" height="40" preserveAspectRatio="xMidYMid meet" version="1.0"><defs><g/><clipPath id="2fb09940ed"><path d="M 0.726562 0 L 44.273438 0 L 44.273438 29.03125 L 0.726562 29.03125 Z M 0.726562 0 " clip-rule="nonzero"/></clipPath><clipPath id="73d2cd8258"><path d="M 16 15 L 43 15 L 43 22 L 16 22 Z M 16 15 " clip-rule="nonzero"/></clipPath><clipPath id="1e2e3c867b"><path d="M 16.351562 17.355469 L 42.40625 15.40625 L 42.730469 19.746094 L 16.675781 21.699219 Z M 16.351562 17.355469 " clip-rule="nonzero"/></clipPath></defs><g clip-path="url(#2fb09940ed)"><path fill="#ffffff" d="M 0.726562 0 L 44.273438 0 L 44.273438 36.289062 L 0.726562 36.289062 Z M 0.726562 0 " fill-opacity="1" fill-rule="nonzero"/><path fill="#ffffff" d="M 0.726562 0 L 44.273438 0 L 44.273438 29.03125 L 0.726562 29.03125 Z M 0.726562 0 " fill-opacity="1" fill-rule="nonzero"/><path fill="#ffffff" d="M 0.726562 0 L 44.273438 0 L 44.273438 29.03125 L 0.726562 29.03125 Z M 0.726562 0 " fill-opacity="1" fill-rule="nonzero"/></g><g fill="#ce3434" fill-opacity="1"><g transform="translate(2.338726, 18.697913)"><g><path d="M 1.53125 -8.019531 L 2.6875 -8.105469 C 3.191406 -8.140625 3.671875 -8.058594 4.007812 -7.703125 C 4.347656 -7.351562 4.527344 -6.773438 4.390625 -5.859375 C 4.25 -4.945312 3.917969 -4.339844 3.484375 -3.933594 C 3.050781 -3.523438 2.523438 -3.347656 2.023438 -3.308594 L 1.585938 -0.113281 L 0.429688 -0.03125 Z M 2.183594 -4.503906 C 2.535156 -4.53125 2.777344 -4.613281 2.925781 -4.808594 C 3.085938 -4.992188 3.148438 -5.285156 3.214844 -5.730469 C 3.277344 -6.175781 3.289062 -6.480469 3.1875 -6.675781 C 3.089844 -6.851562 2.871094 -6.933594 2.515625 -6.910156 Z M 2.183594 -4.503906 "/></g></g></g><g fill="#ce3434" fill-opacity="1"><g transform="translate(6.107762, 18.426435)"><g><path d="M 3.300781 -1.667969 C 3.183594 -1.089844 2.976562 -0.675781 2.539062 -0.332031 C 2.324219 -0.15625 2.050781 -0.0625 1.699219 -0.0351562 C 1.355469 -0.0117188 1.101562 -0.0898438 0.929688 -0.226562 C 0.75 -0.367188 0.652344 -0.53125 0.59375 -0.730469 C 0.523438 -0.972656 0.503906 -1.230469 0.527344 -1.5 L 0.945312 -4.492188 C 1.066406 -5.070312 1.273438 -5.496094 1.710938 -5.859375 C 1.902344 -6.035156 2.183594 -6.132812 2.539062 -6.15625 C 2.878906 -6.179688 3.132812 -6.101562 3.316406 -5.976562 C 3.496094 -5.847656 3.597656 -5.652344 3.652344 -5.472656 C 3.722656 -5.25 3.75 -5.015625 3.71875 -4.722656 Z M 2.703125 -4.617188 C 2.738281 -4.847656 2.71875 -5.019531 2.632812 -5.128906 C 2.585938 -5.179688 2.507812 -5.207031 2.414062 -5.199219 C 2.210938 -5.1875 2.101562 -5.039062 2.039062 -4.871094 C 1.992188 -4.78125 1.964844 -4.683594 1.964844 -4.566406 L 1.542969 -1.574219 C 1.503906 -1.367188 1.527344 -1.195312 1.613281 -1.074219 C 1.660156 -1.023438 1.738281 -0.996094 1.832031 -1.003906 C 2.035156 -1.019531 2.144531 -1.15625 2.207031 -1.320312 C 2.253906 -1.410156 2.28125 -1.507812 2.28125 -1.628906 Z M 2.703125 -4.617188 "/></g></g></g><g fill="#ce3434" fill-opacity="1"><g transform="translate(9.544863, 18.178865)"><g><path d="M 2.671875 -4.574219 C 2.695312 -4.714844 2.714844 -4.886719 2.695312 -5.027344 C 2.652344 -5.152344 2.59375 -5.257812 2.421875 -5.242188 C 2.28125 -5.234375 2.183594 -5.117188 2.117188 -4.984375 C 2.039062 -4.851562 2.011719 -4.664062 1.988281 -4.523438 C 1.957031 -4.339844 2.035156 -4.152344 2.144531 -3.984375 C 2.253906 -3.820312 2.394531 -3.660156 2.546875 -3.507812 C 2.742188 -3.296875 2.976562 -3.054688 3.113281 -2.773438 C 3.253906 -2.484375 3.34375 -2.15625 3.296875 -1.765625 C 3.238281 -1.386719 3.105469 -0.976562 2.835938 -0.65625 C 2.570312 -0.324219 2.203125 -0.0742188 1.6875 -0.0351562 C 1.035156 0.0117188 0.691406 -0.253906 0.527344 -0.617188 C 0.359375 -0.984375 0.371094 -1.425781 0.421875 -1.742188 L 1.429688 -1.8125 C 1.410156 -1.652344 1.394531 -1.425781 1.4375 -1.253906 C 1.492188 -1.078125 1.589844 -0.933594 1.816406 -0.949219 C 2.125 -0.972656 2.238281 -1.34375 2.289062 -1.691406 C 2.339844 -2.050781 2.046875 -2.386719 1.753906 -2.699219 C 1.53125 -2.929688 1.324219 -3.140625 1.164062 -3.421875 C 1.015625 -3.699219 0.925781 -4.015625 0.980469 -4.453125 C 1.03125 -4.800781 1.152344 -5.207031 1.398438 -5.535156 C 1.644531 -5.855469 2.003906 -6.105469 2.515625 -6.15625 C 3.160156 -6.210938 3.476562 -5.996094 3.613281 -5.695312 C 3.753906 -5.394531 3.730469 -4.984375 3.679688 -4.644531 Z M 2.671875 -4.574219 "/></g></g></g><g fill="#ce3434" fill-opacity="1"><g transform="translate(12.84277, 17.941322)"><g><path d="M 3.425781 -2.355469 L 3.335938 -1.671875 C 3.214844 -1.09375 2.996094 -0.679688 2.558594 -0.335938 C 2.347656 -0.15625 2.074219 -0.0625 1.71875 -0.0390625 C 1.023438 0.0117188 0.71875 -0.351562 0.605469 -0.730469 C 0.53125 -0.976562 0.515625 -1.230469 0.539062 -1.503906 L 0.957031 -4.492188 C 1.078125 -5.070312 1.304688 -5.496094 1.742188 -5.863281 C 1.933594 -6.039062 2.214844 -6.132812 2.570312 -6.160156 C 2.914062 -6.183594 3.164062 -6.105469 3.347656 -5.976562 C 3.527344 -5.851562 3.628906 -5.652344 3.683594 -5.476562 C 3.753906 -5.253906 3.78125 -5.019531 3.75 -4.726562 L 3.519531 -3 L 1.730469 -2.871094 L 1.542969 -1.574219 C 1.527344 -1.371094 1.558594 -1.199219 1.644531 -1.078125 C 1.691406 -1.027344 1.769531 -1 1.863281 -1.007812 C 2.070312 -1.019531 2.175781 -1.15625 2.242188 -1.324219 C 2.289062 -1.402344 2.3125 -1.511719 2.324219 -1.632812 L 2.417969 -2.285156 Z M 1.839844 -3.726562 L 2.621094 -3.785156 L 2.746094 -4.621094 C 2.773438 -4.847656 2.761719 -5.011719 2.664062 -5.132812 C 2.617188 -5.183594 2.542969 -5.210938 2.445312 -5.203125 C 2.242188 -5.1875 2.132812 -5.039062 2.058594 -4.875 C 2.023438 -4.796875 1.988281 -4.695312 1.964844 -4.566406 Z M 1.839844 -3.726562 "/></g></g></g><g fill="#ce3434" fill-opacity="1"><g transform="translate(16.290579, 17.692981)"><g><path d="M 0.183594 -0.894531 L 2.230469 -5.058594 L 0.976562 -4.96875 L 1.121094 -5.96875 L 3.519531 -6.140625 L 3.390625 -5.25 L 1.34375 -1.085938 L 2.832031 -1.195312 L 2.699219 -0.195312 L 0.0625 -0.00390625 Z M 0.183594 -0.894531 "/></g></g></g><g clip-path="url(#73d2cd8258)"><g clip-path="url(#1e2e3c867b)"><path fill="#ed7072" d="M 16.375 17.355469 L 42.382812 15.40625 L 42.707031 19.75 L 16.699219 21.699219 L 16.375 17.355469 " fill-opacity="1" fill-rule="nonzero"/></g></g><g fill="#fcfbf1" fill-opacity="1"><g transform="translate(18.34637, 20.248432)"><g><path d="M 0 -2.328125 L 0.84375 -2.390625 C 1.070312 -2.398438 1.265625 -2.347656 1.421875 -2.234375 C 1.578125 -2.117188 1.660156 -1.945312 1.671875 -1.71875 C 1.691406 -1.488281 1.632812 -1.300781 1.5 -1.15625 C 1.363281 -1.019531 1.179688 -0.945312 0.953125 -0.9375 L 0.625 -0.90625 L 0.6875 -0.046875 L 0.171875 -0.015625 Z M 0.59375 -1.328125 L 0.75 -1.34375 C 0.863281 -1.351562 0.957031 -1.382812 1.03125 -1.4375 C 1.101562 -1.488281 1.140625 -1.566406 1.140625 -1.671875 C 1.128906 -1.785156 1.082031 -1.863281 1 -1.90625 C 0.914062 -1.945312 0.816406 -1.960938 0.703125 -1.953125 L 0.546875 -1.9375 Z M 0.59375 -1.328125 "/></g></g></g><g fill="#fcfbf1" fill-opacity="1"><g transform="translate(20.7153, 20.078442)"><g><path d="M -0.015625 -1.15625 C -0.046875 -1.488281 0.0390625 -1.773438 0.25 -2.015625 C 0.46875 -2.265625 0.738281 -2.40625 1.0625 -2.4375 C 1.382812 -2.457031 1.664062 -2.359375 1.90625 -2.140625 C 2.144531 -1.929688 2.28125 -1.660156 2.3125 -1.328125 C 2.332031 -0.992188 2.238281 -0.703125 2.03125 -0.453125 C 1.820312 -0.203125 1.554688 -0.0664062 1.234375 -0.046875 C 0.890625 -0.015625 0.597656 -0.101562 0.359375 -0.3125 C 0.128906 -0.53125 0.00390625 -0.8125 -0.015625 -1.15625 Z M 0.546875 -1.203125 C 0.554688 -1.078125 0.582031 -0.960938 0.625 -0.859375 C 0.675781 -0.765625 0.75 -0.6875 0.84375 -0.625 C 0.945312 -0.570312 1.066406 -0.550781 1.203125 -0.5625 C 1.390625 -0.570312 1.53125 -0.644531 1.625 -0.78125 C 1.71875 -0.925781 1.757812 -1.09375 1.75 -1.28125 C 1.726562 -1.46875 1.660156 -1.625 1.546875 -1.75 C 1.441406 -1.882812 1.296875 -1.945312 1.109375 -1.9375 C 0.910156 -1.914062 0.757812 -1.832031 0.65625 -1.6875 C 0.5625 -1.550781 0.523438 -1.390625 0.546875 -1.203125 Z M 0.546875 -1.203125 "/></g></g></g><g fill="#fcfbf1" fill-opacity="1"><g transform="translate(23.673671, 19.866155)"><g><path d="M 0.84375 -2.421875 C 0.96875 -2.429688 1.09375 -2.421875 1.21875 -2.390625 C 1.34375 -2.359375 1.4375 -2.332031 1.5 -2.3125 L 1.578125 -2.25 L 1.390625 -1.828125 C 1.378906 -1.835938 1.359375 -1.847656 1.328125 -1.859375 C 1.296875 -1.867188 1.234375 -1.882812 1.140625 -1.90625 C 1.054688 -1.9375 0.976562 -1.953125 0.90625 -1.953125 C 0.820312 -1.941406 0.757812 -1.914062 0.71875 -1.875 C 0.675781 -1.84375 0.65625 -1.796875 0.65625 -1.734375 C 0.664062 -1.691406 0.679688 -1.65625 0.703125 -1.625 C 0.722656 -1.601562 0.757812 -1.578125 0.8125 -1.546875 C 0.875 -1.523438 0.925781 -1.503906 0.96875 -1.484375 C 1.007812 -1.472656 1.078125 -1.453125 1.171875 -1.421875 C 1.316406 -1.367188 1.445312 -1.289062 1.5625 -1.1875 C 1.675781 -1.082031 1.738281 -0.960938 1.75 -0.828125 C 1.757812 -0.691406 1.742188 -0.570312 1.703125 -0.46875 C 1.660156 -0.375 1.597656 -0.296875 1.515625 -0.234375 C 1.441406 -0.171875 1.351562 -0.117188 1.25 -0.078125 C 1.15625 -0.046875 1.050781 -0.0234375 0.9375 -0.015625 C 0.832031 -0.015625 0.726562 -0.0195312 0.625 -0.03125 C 0.53125 -0.0390625 0.445312 -0.0546875 0.375 -0.078125 C 0.3125 -0.109375 0.253906 -0.140625 0.203125 -0.171875 C 0.148438 -0.203125 0.109375 -0.222656 0.078125 -0.234375 L 0.046875 -0.265625 L 0.28125 -0.734375 C 0.300781 -0.710938 0.332031 -0.6875 0.375 -0.65625 C 0.414062 -0.632812 0.488281 -0.601562 0.59375 -0.5625 C 0.695312 -0.519531 0.785156 -0.5 0.859375 -0.5 C 1.078125 -0.519531 1.179688 -0.609375 1.171875 -0.765625 C 1.171875 -0.796875 1.160156 -0.820312 1.140625 -0.84375 C 1.117188 -0.863281 1.085938 -0.882812 1.046875 -0.90625 C 1.015625 -0.9375 0.984375 -0.957031 0.953125 -0.96875 C 0.921875 -0.976562 0.863281 -1 0.78125 -1.03125 C 0.707031 -1.0625 0.65625 -1.082031 0.625 -1.09375 C 0.488281 -1.15625 0.375 -1.234375 0.28125 -1.328125 C 0.195312 -1.429688 0.148438 -1.539062 0.140625 -1.65625 C 0.128906 -1.863281 0.191406 -2.035156 0.328125 -2.171875 C 0.472656 -2.316406 0.644531 -2.398438 0.84375 -2.421875 Z M 0.84375 -2.421875 "/></g></g></g><g fill="#fcfbf1" fill-opacity="1"><g transform="translate(26.059364, 19.694962)"><g/></g></g><g fill="#fcfbf1" fill-opacity="1"><g transform="translate(27.330429, 19.603753)"><g><path d="M -0.015625 -1.15625 C -0.046875 -1.488281 0.0390625 -1.773438 0.25 -2.015625 C 0.46875 -2.265625 0.738281 -2.40625 1.0625 -2.4375 C 1.382812 -2.457031 1.664062 -2.359375 1.90625 -2.140625 C 2.144531 -1.929688 2.28125 -1.660156 2.3125 -1.328125 C 2.332031 -0.992188 2.238281 -0.703125 2.03125 -0.453125 C 1.820312 -0.203125 1.554688 -0.0664062 1.234375 -0.046875 C 0.890625 -0.015625 0.597656 -0.101562 0.359375 -0.3125 C 0.128906 -0.53125 0.00390625 -0.8125 -0.015625 -1.15625 Z M 0.546875 -1.203125 C 0.554688 -1.078125 0.582031 -0.960938 0.625 -0.859375 C 0.675781 -0.765625 0.75 -0.6875 0.84375 -0.625 C 0.945312 -0.570312 1.066406 -0.550781 1.203125 -0.5625 C 1.390625 -0.570312 1.53125 -0.644531 1.625 -0.78125 C 1.71875 -0.925781 1.757812 -1.09375 1.75 -1.28125 C 1.726562 -1.46875 1.660156 -1.625 1.546875 -1.75 C 1.441406 -1.882812 1.296875 -1.945312 1.109375 -1.9375 C 0.910156 -1.914062 0.757812 -1.832031 0.65625 -1.6875 C 0.5625 -1.550781 0.523438 -1.390625 0.546875 -1.203125 Z M 0.546875 -1.203125 "/></g></g></g><g fill="#fcfbf1" fill-opacity="1"><g transform="translate(30.288799, 19.391466)"><g><path d="M 0.578125 -1.484375 L 0.6875 -0.046875 L 0.171875 -0.015625 L 0 -2.328125 L 0.515625 -2.359375 L 1.546875 -0.984375 L 1.4375 -2.421875 L 1.96875 -2.46875 L 2.140625 -0.15625 L 1.609375 -0.109375 L 0.59375 -1.484375 Z M 0.578125 -1.484375 "/></g></g></g><g fill="#fcfbf1" fill-opacity="1"><g transform="translate(33.1047, 19.189403)"><g><path d="M 0.515625 -2.359375 L 0.65625 -0.515625 L 1.453125 -0.578125 L 1.484375 -0.109375 L 0.171875 -0.015625 L 0 -2.328125 Z M 0.515625 -2.359375 "/></g></g></g><g fill="#fcfbf1" fill-opacity="1"><g transform="translate(35.191483, 19.039659)"><g><path d="M 0.515625 -2.359375 L 0.6875 -0.046875 L 0.171875 -0.015625 L 0 -2.328125 Z M 0.515625 -2.359375 "/></g></g></g><g fill="#fcfbf1" fill-opacity="1"><g transform="translate(36.560322, 18.941434)"><g><path d="M 0.578125 -1.484375 L 0.6875 -0.046875 L 0.171875 -0.015625 L 0 -2.328125 L 0.515625 -2.359375 L 1.546875 -0.984375 L 1.4375 -2.421875 L 1.96875 -2.46875 L 2.140625 -0.15625 L 1.609375 -0.109375 L 0.59375 -1.484375 Z M 0.578125 -1.484375 "/></g></g></g><g fill="#fcfbf1" fill-opacity="1"><g transform="translate(39.376223, 18.73937)"><g><path d="M 1.3125 -2.421875 L 1.359375 -1.953125 L 0.5625 -1.890625 L 0.59375 -1.4375 L 1.359375 -1.5 L 1.390625 -1.03125 L 0.625 -0.96875 L 0.65625 -0.515625 L 1.453125 -0.578125 L 1.484375 -0.109375 L 0.171875 -0.015625 L 0 -2.328125 Z M 1.3125 -2.421875 "/></g></g></g></svg>